<svg width="68" height="30" viewBox="0 0 68 30" fill="none" xmlns="http://www.w3.org/2000/svg">
<path fill-rule="evenodd" clip-rule="evenodd" d="M53.6376 0.471675C53.3458 0.177679 52.8709 0.175887 52.5769 0.467673C52.2829 0.759459 52.2811 1.23433 52.5729 1.52833L65.1989 14.25H1C0.585786 14.25 0.25 14.5858 0.25 15C0.25 15.4142 0.585786 15.75 1 15.75H65.1989L52.5729 28.4717C52.2811 28.7657 52.2829 29.2405 52.5769 29.5323C52.8709 29.8241 53.3458 29.8223 53.6376 29.5283L67.5283 15.5323C67.5295 15.5312 67.5306 15.53 67.5318 15.5288L67.5323 15.5283C67.5674 15.493 67.5982 15.455 67.6248 15.415M53.6376 0.471675L67.5283 14.4677L53.6376 0.471675Z" fill="white"/>
</svg>
