<svg width="512" height="512" viewBox="0 0 512 512" fill="none" xmlns="http://www.w3.org/2000/svg">
<path fill-rule="evenodd" clip-rule="evenodd" d="M482.981 226.722L453.849 209.8C451.179 208.247 447.88 208.24 445.2 209.783C442.522 211.324 440.87 214.18 440.87 217.27C440.87 226.798 433.119 234.549 423.591 234.549H421.863C419.224 234.549 416.73 235.755 415.091 237.823C413.453 239.891 412.849 242.595 413.452 245.164L427.897 306.665C430.966 319.73 426.47 332.951 416.756 341.335C406.081 321.161 385.097 308.214 361.618 308.214C338.732 308.214 318.693 320.601 307.824 339.014C298.346 322.959 281.898 311.499 262.668 308.825V284.888H282.14C350.389 284.888 416.756 229.365 416.756 161.116C416.756 92.867 350.39 37.345 282.141 37.345H262.669V8.639C262.669 3.868 258.802 0 254.03 0C249.258 0 245.391 3.868 245.391 8.639V37.345H133.651C128.879 37.345 125.012 41.213 125.012 45.984C125.012 50.755 128.879 54.623 133.651 54.623C192.372 54.623 240.144 102.396 240.144 161.116C240.144 219.836 192.371 267.609 133.651 267.609C128.879 267.609 125.012 271.477 125.012 276.248C125.012 281.019 128.879 284.887 133.651 284.887H245.39V308.824C226.168 311.498 209.726 322.949 200.246 338.994C198.533 336.08 196.589 333.291 194.405 330.673C191.348 327.008 185.898 326.517 182.237 329.573C178.572 332.629 178.08 338.078 181.136 341.741C187.882 349.827 191.597 360.093 191.597 370.647C191.597 395.539 171.346 415.791 146.455 415.791C122.447 415.791 102.642 397.035 101.363 373.033C101.32 372.312 101.298 371.531 101.298 370.647C101.298 345.748 121.554 325.492 146.453 325.492C150.279 325.492 154.078 325.97 157.744 326.913C162.36 328.103 167.075 325.319 168.263 320.698C169.452 316.078 166.669 311.367 162.047 310.179C156.977 308.874 151.729 308.213 146.452 308.213C114.017 308.213 87.2901 333.077 84.3051 364.743C63.6271 362.928 47.3531 345.521 47.3531 324.374C47.3531 324.362 47.3523 324.352 47.351 324.342C47.3499 324.333 47.3483 324.325 47.3468 324.317C47.3446 324.305 47.3424 324.292 47.3411 324.278V304.146C47.3411 291.175 36.7891 280.624 23.8191 280.624C17.5491 280.624 11.6441 283.064 7.18113 287.509C2.73513 291.957 0.286133 297.865 0.286133 304.146V314.387C0.286133 319.158 4.15313 323.026 8.92513 323.026C13.6971 323.026 17.5641 319.158 17.5641 314.387V304.146C17.5641 302.479 18.2161 300.91 19.3861 299.74C20.5751 298.556 22.1491 297.904 23.8201 297.904C27.2621 297.904 30.0631 300.704 30.0631 304.147V402.302C30.0631 437.465 58.6701 466.072 93.8321 466.072H145.956L146 466H171.5L171.458 466.071H258.456L258.5 466H284.5L284.46 466.07H411.727C433.58 466.07 454.356 456.63 468.727 440.171C483.097 423.716 489.649 401.863 486.705 380.218L485.704 372.849C485.062 368.12 480.705 364.81 475.981 365.451C471.254 366.094 467.942 370.447 468.583 375.174L469.584 382.543C471.856 399.246 466.799 416.106 455.712 428.804C444.621 441.505 428.589 448.79 411.726 448.79H294.616L294.5 449H268L268.157 448.794H181.614L181.5 449H155.5L155.655 448.796H93.8331C68.1981 448.796 47.3431 427.94 47.3431 402.304V365.545C57.1641 375.221 70.4171 381.416 85.0891 382.118C90.4891 411.264 116.021 433.073 146.454 433.073C155.401 433.073 163.908 431.167 171.608 427.762L171.289 428.277L171.5 428C184.127 422.601 190.898 418.677 201 406L203.918 408.432L204.121 408.105C215.524 423.254 233.652 433.07 254.031 433.07C266.333 433.07 277.808 429.479 287.485 423.311L286.803 424.411L287.5 423.5C295.921 418.447 298.314 415.877 304.235 409.518L304.239 409.513C305.348 408.322 306.581 406.998 308 405.5L315 412L314.966 412.061C326.411 424.933 343.08 433.065 361.62 433.065C396.039 433.065 424.041 405.062 424.041 370.643C424.041 366.497 423.633 362.392 422.833 358.372C440.905 346.375 449.813 324.393 444.721 302.709L432.496 250.661C442.853 247.898 451.313 240.429 455.434 230.697L474.307 241.66C482.331 246.316 488.391 253.558 491.673 261.972C489.346 261.327 486.897 260.981 484.368 260.981C469.288 260.981 457.022 273.233 457.022 288.293C457.022 289.524 457.106 290.772 457.274 292.003L464.987 348.72C465.63 353.449 469.983 356.758 474.711 356.116C479.438 355.473 482.75 351.119 482.107 346.392L474.394 289.676C474.331 289.215 474.3 288.75 474.3 288.294C474.3 282.761 478.817 278.261 484.368 278.261C489.919 278.261 494.436 282.772 494.436 288.317C494.436 293.088 498.303 296.956 503.075 296.956C507.847 296.956 511.714 293.088 511.714 288.317V276.614C511.714 256.126 500.703 237.007 482.981 226.722ZM196.676 267.611C233.018 246.023 257.423 206.368 257.423 161.118C257.423 115.867 233.017 76.213 196.676 54.625H282.141C340.862 54.625 399.478 102.398 399.478 161.118C399.478 219.838 340.861 267.611 282.141 267.611H196.676ZM254.03 415.792C229.131 415.792 208.875 395.54 208.875 370.648C208.875 345.749 229.131 325.493 254.03 325.493C278.929 325.493 299.185 345.749 299.185 370.648C299.185 395.54 278.928 415.792 254.03 415.792ZM361.62 415.792C336.721 415.792 316.465 395.54 316.465 370.648C316.465 345.749 336.721 325.493 361.62 325.493C381.313 325.493 398.588 338.078 404.608 356.807C406.038 361.255 406.762 365.912 406.762 370.648C406.762 395.54 386.512 415.792 361.62 415.792Z" fill="white"/>
<path d="M146.452 339.316C129.177 339.316 115.12 353.372 115.12 370.648C115.12 387.919 129.176 401.969 146.452 401.969C163.722 401.969 177.771 387.919 177.771 370.648C177.772 353.372 163.722 339.316 146.452 339.316ZM146.454 384.69C138.704 384.69 132.401 378.391 132.401 370.648C132.401 362.899 138.705 356.595 146.454 356.595C154.196 356.595 160.495 362.9 160.495 370.648C160.494 378.392 154.196 384.69 146.454 384.69Z" fill="white"/>
<path d="M254.03 339.316C236.754 339.316 222.698 353.372 222.698 370.648C222.698 387.919 236.754 401.969 254.03 401.969C271.306 401.969 285.362 387.919 285.362 370.648C285.362 353.372 271.306 339.316 254.03 339.316ZM254.03 384.69C246.281 384.69 239.977 378.391 239.977 370.648C239.977 362.899 246.281 356.595 254.03 356.595C261.78 356.595 268.083 362.899 268.083 370.648C268.083 378.392 261.779 384.69 254.03 384.69Z" fill="white"/>
<path d="M390.361 358.201C388.462 353.825 383.374 351.815 378.996 353.715C374.62 355.614 372.611 360.703 374.51 365.08C375.273 366.838 375.66 368.712 375.66 370.648C375.66 378.391 369.361 384.69 361.619 384.69C353.869 384.69 347.566 378.391 347.566 370.648C347.566 362.899 353.87 356.595 361.619 356.595C366.391 356.595 370.258 352.727 370.258 347.956C370.258 343.185 366.391 339.317 361.619 339.317C344.343 339.317 330.287 353.373 330.287 370.649C330.287 387.92 344.343 401.97 361.619 401.97C378.889 401.97 392.938 387.92 392.938 370.649C392.939 366.331 392.072 362.143 390.361 358.201Z" fill="white"/>
</svg>
