<svg viewBox="0 0 707 98" fill="none" xmlns="http://www.w3.org/2000/svg">
<path d="M22.7865 85.3333C54.6042 85.3333 70.8906 70.0313 85.2656 56.526C98.375 44.2083 109.698 33.5677 132.974 33.5677C156.245 33.5677 167.573 44.2083 180.682 56.526C195.052 70.0313 211.339 85.3333 243.161 85.3333C274.979 85.3333 291.266 70.0313 305.635 56.526C318.745 44.2083 330.068 33.5677 353.344 33.5677C376.615 33.5677 387.938 44.2083 401.047 56.526C415.417 70.0313 431.703 85.3333 463.521 85.3333C495.339 85.3333 511.63 70.0313 525.995 56.526C539.109 44.2083 550.427 33.5677 573.703 33.5677C596.974 33.5677 608.297 44.2083 621.406 56.526C635.776 70.0313 652.063 85.3333 683.88 85.3333C689.839 85.3333 694.667 80.5052 694.667 74.5521C694.667 68.5938 689.839 63.7656 683.88 63.7656C660.609 63.7656 649.287 53.125 636.177 40.8073C621.807 27.3021 605.521 12 573.703 12C541.885 12 525.594 27.3073 511.229 40.8073C498.115 53.125 486.797 63.7656 463.521 63.7656C440.25 63.7656 428.927 53.125 415.818 40.8073C401.448 27.3021 385.161 12 353.344 12C321.526 12 305.234 27.3073 290.865 40.8073C277.755 53.125 266.432 63.7656 243.161 63.7656C219.885 63.7656 208.562 53.125 195.453 40.8073C181.078 27.3021 164.792 12 132.974 12C101.156 12 84.8646 27.3073 70.4948 40.8073C57.3802 53.125 46.0573 63.7656 22.7865 63.7656C16.8281 63.7656 12 68.5938 12 74.5521C12 80.5052 16.8281 85.3333 22.7865 85.3333Z" fill="white"/>
<path fill-rule="evenodd" clip-rule="evenodd" d="M93.4822 65.2718L93.2407 65.4987C78.6195 79.2363 59.3583 97.3333 22.7865 97.3333C10.2045 97.3333 0 87.1364 0 74.5521C0 61.9663 10.2007 51.7656 22.7865 51.7656C32.3789 51.7656 38.9764 49.628 44.5133 46.4766C50.4411 43.1026 55.5315 38.3983 62.2783 32.0615C62.2787 32.0611 62.2791 32.0608 62.2794 32.0604L62.5209 31.8335C77.1364 18.1016 96.4029 0 132.974 0C169.546 0 188.807 18.0971 203.428 31.8347L203.67 32.0615C210.414 38.3982 215.503 43.1029 221.431 46.4766C226.967 49.6277 233.566 51.7656 243.161 51.7656C252.754 51.7656 259.351 49.628 264.887 46.4768C270.814 43.1031 275.904 38.3988 282.647 32.0621L282.891 31.8335C297.506 18.1016 316.773 0 353.344 0C389.923 0 409.184 18.1037 423.803 31.8438L424.035 32.0621C424.035 32.0624 424.036 32.0627 424.036 32.063C430.779 38.3992 435.869 43.1033 441.795 46.4768C447.331 49.628 453.928 51.7656 463.521 51.7656C473.116 51.7656 479.714 49.6278 485.249 46.4768C491.177 43.1028 496.266 38.3986 503.014 32.0604L503.246 31.8426C517.858 18.1083 537.125 0 573.703 0C610.282 0 629.543 18.1037 644.162 31.8437L644.394 32.0621C644.395 32.0624 644.395 32.0627 644.395 32.063C651.139 38.3992 656.228 43.1033 662.154 46.4768C667.69 49.628 674.288 51.7656 683.88 51.7656C696.466 51.7656 706.667 61.9663 706.667 74.5521C706.667 87.1364 696.462 97.3333 683.88 97.3333C647.301 97.3333 628.04 79.2297 613.421 65.4896L613.189 65.2713C613.189 65.2709 613.188 65.2706 613.188 65.2703C606.445 58.9341 601.355 54.2301 595.429 50.8565C589.893 47.7054 583.296 45.5677 573.703 45.5677C564.108 45.5677 557.51 47.7055 551.975 50.8565C546.047 54.2305 540.958 58.9347 534.21 65.2729L533.996 65.4741C519.378 79.2182 500.112 97.3333 463.521 97.3333C426.942 97.3333 407.681 79.2296 393.062 65.4896L392.83 65.2713C392.829 65.2709 392.829 65.2706 392.829 65.2703C386.085 58.9341 380.996 54.2301 375.07 50.8565C369.534 47.7054 362.936 45.5677 353.344 45.5677C343.748 45.5677 337.149 47.7056 331.613 50.8568C325.686 54.2302 320.597 58.9341 313.854 65.2703C313.853 65.2706 313.853 65.2709 313.853 65.2713L313.62 65.4896C299.002 79.2296 279.74 97.3333 243.161 97.3333C206.577 97.3333 187.316 79.2297 172.697 65.4892L172.465 65.2713C165.722 58.9354 160.631 54.2308 154.703 50.857C149.166 47.7054 142.567 45.5677 132.974 45.5677C123.378 45.5677 116.78 47.7056 111.243 50.8568C105.316 54.2304 100.226 58.9351 93.4822 65.2718ZM180.682 56.526C167.573 44.2083 156.245 33.5677 132.974 33.5677C109.7 33.5677 98.3765 44.2069 85.2683 56.5235L85.2656 56.526L85.2641 56.5275C70.8895 70.0324 54.603 85.3333 22.7865 85.3333C16.8281 85.3333 12 80.5052 12 74.5521C12 68.5938 16.8281 63.7656 22.7865 63.7656C46.0512 63.7656 57.3743 53.1306 70.4845 40.817L70.4973 40.8049C84.8665 27.3055 101.158 12 132.974 12C164.791 12 181.077 27.301 195.452 40.8058L195.453 40.8073L195.456 40.8098C208.564 53.1264 219.887 63.7656 243.161 63.7656C266.431 63.7656 277.754 53.1264 290.862 40.8098L290.865 40.8073L290.867 40.805C305.236 27.3055 321.528 12 353.344 12C385.161 12 401.448 27.3021 415.818 40.8073L415.82 40.8098C428.929 53.1265 440.252 63.7656 463.521 63.7656C486.786 63.7656 498.104 53.1353 511.21 40.8252L511.229 40.8073C525.594 27.3073 541.885 12 573.703 12C605.521 12 621.807 27.3021 636.177 40.8073L636.18 40.8099C649.288 53.1265 660.611 63.7656 683.88 63.7656C689.839 63.7656 694.667 68.5938 694.667 74.5521C694.667 80.5052 689.839 85.3333 683.88 85.3333C652.062 85.3333 635.776 70.0313 621.406 56.526L621.404 56.5235C608.295 44.2068 596.972 33.5677 573.703 33.5677C550.438 33.5677 539.12 44.1981 526.014 56.5082L525.995 56.526C511.63 70.0313 495.339 85.3333 463.521 85.3333C431.703 85.3333 415.417 70.0313 401.047 56.526L401.044 56.5235C387.936 44.2069 376.613 33.5677 353.344 33.5677C330.069 33.5677 318.746 44.2069 305.638 56.5235L305.635 56.526C291.266 70.0313 274.979 85.3333 243.161 85.3333C211.339 85.3333 195.052 70.0313 180.682 56.526Z" fill="#B898FB"/>
</svg>
