<svg id="Capa_1" enable-background="new 0 0 512 512" height="512" viewBox="0 0 512 512" width="512" xmlns="http://www.w3.org/2000/svg"><g><path d="m85.266 192.672c4.808-13.632 11.215-26.573 19.103-38.645-23.052-7.688-35.02-27.548-39.69-37.424-10.402-22.003-9.933-45.037-2.969-52.745l-22.022-20.37c-26.062 27.525-40.153 63.579-39.676 101.52.478 38.021 15.551 73.772 42.445 100.666 9.796 9.796 20.687 17.976 32.543 24.497v-17.285c0-20.64 3.454-40.899 10.266-60.214z"/><path d="m426.734 192.672c6.812 19.315 10.266 39.574 10.266 60.214v17.285c11.856-6.522 22.747-14.702 32.543-24.498 26.894-26.894 41.967-62.644 42.445-100.666.477-37.941-13.614-73.995-39.676-101.52l-22.022 20.37c6.964 7.708 7.433 30.742-2.969 52.745-4.669 9.876-16.628 29.745-39.686 37.43 7.886 12.071 14.292 25.01 19.099 38.64z"/><path d="m185.392 119.389c-47.815 25.342-80.392 75.611-80.392 133.497v34.845h80.392z"/><path d="m407 252.886c0-57.886-32.576-108.155-80.392-133.497v168.342h80.392z"/><path d="m60 317.731h125.392v64.972h-125.392z"/><path d="m326.608 317.731h125.392v64.972h-125.392z"/><path d="m296.608 56.105h-81.216v379.92l40.608 32.486 40.608-32.486z"/></g></svg>