<svg width="74" height="13" viewBox="0 0 74 13" fill="none" xmlns="http://www.w3.org/2000/svg">
<path d="M13.4443 0L7.88492 12.6395H5.54124L0 0H2.07115L6.7585 10.7616L11.4458 0H13.4443Z" fill="#040912"/>
<path d="M17.0737 0V12.6395H15.2569V0H17.0737Z" fill="#040912"/>
<path d="M26.7622 6.22947C27.9976 6.66282 28.9484 7.46332 29.6146 8.63097C30.2807 9.79862 30.6138 11.1348 30.6138 12.6395H28.797C28.797 11.5561 28.5911 10.5991 28.1793 9.76853C27.7796 8.93793 27.18 8.2879 26.3807 7.81843C25.5934 7.34897 24.6365 7.11423 23.5101 7.11423H22.1293V12.6395H20.3489V0H22.1293V5.52527H23.5101C25.0604 5.52527 26.2838 5.04978 27.18 4.09881C28.0884 3.1358 28.5427 1.76953 28.5427 0H30.3595C30.3595 1.45655 30.0506 2.75661 29.4329 3.90019C28.8152 5.03172 27.9249 5.80815 26.7622 6.22947Z" fill="#040912"/>
<path d="M34.8868 0V12.6395H33.07V0H34.8868Z" fill="#040912"/>
<path d="M49.2445 0V12.6395H47.4277V10.5088L39.9788 2.45568V12.6395H38.162V0H39.9788L47.4277 8.07122V0H49.2445Z" fill="#040912"/>
<path d="M62.6169 1.73342H53.5874C53.7206 3.3585 54.1021 4.82107 54.732 6.12113C55.3618 7.40915 56.1915 8.46847 57.221 9.29906C58.2626 10.1176 59.4557 10.6533 60.8001 10.9061V6.41003H57.2392V4.7669H62.6169V12.8201C60.5942 12.8201 58.7411 12.3085 57.0575 11.2853C55.386 10.25 54.0598 8.7995 53.0787 6.93367C52.0976 5.06784 51.6071 2.93718 51.6071 0.541694L51.6252 0H62.6169V1.73342Z" fill="#040912"/>
<path d="M69.6215 5.43499C70.5541 5.65166 71.3293 5.89843 71.947 6.1753C72.5647 6.44013 73.0613 6.81329 73.4368 7.2948C73.8123 7.76427 74 8.37216 74 9.1185C74 9.85279 73.7699 10.5028 73.3096 11.0686C72.8494 11.6223 72.1953 12.0557 71.3475 12.3687C70.5117 12.6696 69.5367 12.8201 68.4224 12.8201V11.0866C69.6215 11.0866 70.536 10.9181 71.1658 10.5811C71.8077 10.232 72.1287 9.76251 72.1287 9.17267C72.1287 8.76339 72.0136 8.44439 71.7835 8.21568C71.5534 7.97492 71.2506 7.79436 70.8751 7.67398C70.5117 7.54157 69.9364 7.37906 69.1491 7.18646C68.0348 6.89756 67.1507 6.62069 66.4966 6.35586C65.8426 6.079 65.2733 5.61555 64.7888 4.96552C64.3043 4.30345 64.0621 3.39461 64.0621 2.239C64.0621 1.64915 64.1227 0.902822 64.2438 0H73.6003V1.6973H65.8607C65.8244 1.98621 65.8062 2.25104 65.8062 2.49179C65.8062 3.12978 65.9516 3.62934 66.2423 3.99047C66.5451 4.3516 66.9448 4.62847 67.4414 4.82107C67.9501 5.01367 68.6768 5.21831 69.6215 5.43499Z" fill="#040912"/>
</svg>
